<svg width="194" height="82" viewBox="0 0 194 82" fill="none" xmlns="http://www.w3.org/2000/svg">
<path d="M114 0C115.32 0.66 116.64 1.32 118 2C118.152 11.0113 114.575 18.1495 110.86 26.1172C109.081 30.0117 107.545 34.0079 106 38C107.33 36.7316 107.33 36.7316 108.688 35.4375C111.604 32.9912 111.604 32.9912 114.812 33.0625C117 34 117 34 118 36C118.042 38.6758 118.048 41.3268 118 44C118 44.99 118 45.98 118 47C121.597 44.1923 124.55 41.4154 127.438 37.875C130.692 34.0444 133.271 32.606 138 31C140.722 29.8336 141.97 29.0333 144 26.8125C144.66 26.2144 145.32 25.6162 146 25C149.018 25.1775 149.837 25.8374 152 28C152 34.7706 149.387 39.8708 146.375 45.8516C145.019 48.957 144.402 51.6492 144 55C150.894 44.4014 150.894 44.4014 156.812 33.25C158.602 29.5136 160.236 27.0269 164 25C166.257 25.1881 167.395 25.3955 169 27C169.317 32.0376 169.307 37.0996 168 42C168.598 41.2163 169.196 40.4325 169.812 39.625C172.188 36.7743 173.748 35.1565 177.5 34.6875C180 35 180 35 181.75 36.1875C183.288 38.4182 183.64 40.3364 184 43C186.468 41.8483 188.048 40.9522 190 39C192.125 39.375 192.125 39.375 194 40C193.925 43.1387 193.618 45.2927 191.516 47.6992C188.503 50.3579 186.084 52.4473 182 53C178.651 51.5647 177.299 50.613 175.688 47.3125C175.347 46.1678 175.347 46.1678 175 45C171.407 48.1782 169.016 51.8658 166.465 55.8789C165.099 57.8563 163.853 59.4715 162 61C159.171 60.8585 157.555 60.4318 155.312 58.6875C153.91 56.8837 152.994 55.0514 152 53C151.553 53.6381 151.105 54.2762 150.645 54.9336C150.04 55.7599 149.435 56.5862 148.812 57.4375C147.925 58.6731 147.925 58.6731 147.02 59.9336C144.65 62.3586 143.365 62.881 140 63C135.92 59.8685 134.264 56.9405 133 52C132.01 52.66 131.02 53.32 130 54C126.699 53.6905 125.141 52.4625 123 50C122.257 50.6394 121.515 51.2788 120.75 51.9375C116.56 55.08 116.56 55.08 114 55C111.25 53 111.25 53 109 50C108.688 46.1875 108.688 46.1875 109 43C105.767 46.8751 103.049 50.923 100.375 55.1875C96.2655 61.7345 96.2655 61.7345 94 64C91.625 64.4375 91.625 64.4375 89 64C87.6118 62.3788 86.2724 60.7137 85 59C84.4315 59.9294 83.863 60.8588 83.2773 61.8164C73.0415 78.3082 73.0415 78.3082 66.3125 81.125C64 81 64 81 61.75 80C59.2383 77.1295 59.326 74.7705 59 71C59.2258 68.5114 59.5381 66.0292 59.9375 63.5625C60.1321 62.3263 60.3268 61.0901 60.5273 59.8164C60.7613 58.4223 60.7613 58.4223 61 57C60.3903 57.8018 59.7805 58.6036 59.1523 59.4297C57 62 57 62 54.5625 63.125C52 63 52 63 49.25 61C46.6621 57.5495 46.2503 55.2551 46 51C45.1338 51.7734 45.1338 51.7734 44.25 52.5625C42 54 42 54 39.9375 53.8125C38 53 38 53 35 51C33.6078 51.5878 33.6078 51.5878 32.1875 52.1875C31.1356 52.4556 30.0838 52.7237 29 53C25.4957 50.6413 23.3403 48.5104 21 45C20.3735 45.9874 19.747 46.9748 19.1016 47.9922C18.2762 49.2865 17.4506 50.5808 16.625 51.875C16.2125 52.526 15.8 53.177 15.375 53.8477C13.72 56.437 12.18 58.82 10 61C7.0625 60.9375 7.0625 60.9375 4 60C0.411558 56.0403 0.0168866 51.1589 0 46C0.58186 38.7773 3.71465 32.7683 8 27C11 25 11 25 13.6875 25.375C14.8322 25.6844 14.8322 25.6844 16 26C16.7561 31.2347 17.2063 35.7725 16 41C16.4473 40.5669 16.8946 40.1337 17.3555 39.6875C22.2625 35.1676 22.2625 35.1676 25.75 34.375C28 35 28 35 29.75 36.6875C31.0825 39.1525 31.5091 41.2593 32 44C32.7618 43.329 32.7618 43.329 33.5391 42.6445C34.9729 41.3852 36.4107 40.1302 37.8516 38.8789C39.1106 37.7778 40.3603 36.6655 41.5859 35.5273C44.9288 32.5077 47.9928 31.1388 52.1797 29.7617C54.2567 29.0278 54.2567 29.0278 56.25 26.75C56.8275 26.1725 57.405 25.595 58 25C61.0181 25.1775 61.8374 25.8374 64 28C63.6837 33.4102 62.0535 37.8503 59.9375 42.75C57.7257 47.6885 57.7257 47.6885 57 53C63.1994 44.6009 66.9465 36.9237 70 27C68.35 27 66.7 27 65 27C64.67 25.35 64.34 23.7 64 22C70.59 18.0713 70.59 18.0713 73.043 17.6445C75.856 16.7181 76.5491 15.1191 78.0625 12.625C79.8353 9.73777 81.5003 7.2994 84 5C85.32 5.66 86.64 6.32 88 7C88.027 8.45823 88.0464 9.91661 88.0625 11.375C88.0741 12.1871 88.0857 12.9992 88.0977 13.8359C88 16 88 16 87 18C87.9488 17.9587 88.8975 17.9175 89.875 17.875C93 18 93 18 95 20C94.625 22.625 94.625 22.625 94 25C91.03 25 88.06 25 85 25C76.8097 46.1329 76.8097 46.1329 71 68C71.3979 67.4005 71.7958 66.801 72.2058 66.1833C74.0318 63.4339 75.8596 60.6857 77.6875 57.9375C78.3133 56.9946 78.9392 56.0516 79.584 55.0801C80.5073 53.6927 80.5073 53.6927 81.4492 52.2773C82.0564 51.3646 82.6637 50.4519 83.2893 49.5115C84.7164 47.4163 86.1962 45.3944 87.7266 43.375C90.4737 39.571 92.0168 35.4196 93.6875 31.0625C96.3624 24.4252 99.3462 18.2069 103.125 12.125C103.52 11.478 103.916 10.8309 104.323 10.1643C107.041 5.93367 110.001 3.04864 114 0ZM47.6602 37.3203C44.358 41.0503 42.2075 44.0491 41 49C44.5195 47.0976 46.9956 45.5076 49 42C49.7205 38.8488 49.7205 38.8488 50 36C48.8052 35.883 48.8052 35.883 47.6602 37.3203ZM137 36C133.154 40.0881 130.364 43.4072 129 49C134.025 46.6272 135.723 43.9038 138 39C137.67 38.01 137.34 37.02 137 36ZM62 54C63 56 63 56 63 56L62 54Z" fill="url(#paint0_linear_130_6)"/>
<defs>
<linearGradient id="paint0_linear_130_6" x1="97" y1="184" x2="21" y2="-83.5" gradientUnits="userSpaceOnUse">
<stop stop-color="#525252"/>
<stop offset="1" stop-color="white"/>
</linearGradient>
</defs>
</svg>
